<?xml version="1.0" encoding="iso-8859-1"?>
<!-- Uploaded to: SVG Repo, www.svgrepo.com, Generator: SVG Repo Mixer Tools -->
<svg xmlns="http://www.w3.org/2000/svg" xmlns:xlink="http://www.w3.org/1999/xlink" version="1.1" id="Capa_1"  viewBox="0 0 460 460" xml:space="preserve" width="512" height="512">
<g>
	<path style="fill:#6DA8D6;" d="M291.867,0c-27.487,0-50.261,20.509-53.858,47.026h-16.019C218.393,20.509,195.62,0,168.133,0   c-29.979,0-54.368,24.389-54.368,54.368c0,29.978,24.389,54.367,54.368,54.367c27.378,0,50.083-20.345,53.817-46.708h16.1   c3.735,26.363,26.44,46.708,53.817,46.708c29.979,0,54.368-24.389,54.368-54.367C346.235,24.389,321.846,0,291.867,0z"/>
	<circle style="fill:#C1E8E6;" cx="291.867" cy="54.368" r="39.367"/>
	<circle style="fill:#C1E8E6;" cx="168.133" cy="54.368" r="39.367"/>
	<polygon style="fill:#FF6E1D;" points="311.086,138.735 291.086,299.368 311.086,460 401.086,460 401.086,138.735  "/>
	<polygon style="fill:#C1E8E6;" points="341.086,168.735 321.086,299.367 341.086,430 371.086,430 371.086,168.735  "/>
	<rect x="291.086" y="168.735" style="fill:#FFFFFF;" width="50" height="261.265"/>
	<path style="fill:#FFCC75;" d="M73.914,138.735c-8.28,0-15,6.72-15,15c0,8.28,6.72,15,15,15V430c-8.28,0-15,6.72-15,15   c0,8.28,6.72,15,15,15h237.17V138.735H73.914z"/>
	<path style="fill:#F2EBD9;" d="M281.084,198.735V400c-16.57,0-30,13.43-30,30h-117.17c0-16.57-13.43-30-30-30V198.735   c16.57,0,30-13.43,30-30h117.17C251.084,185.305,264.514,198.735,281.084,198.735z"/>
</g>















</svg>